<svg xmlns="http://www.w3.org/2000/svg" viewBox="0 0 100 228">
<rect width="100" height="228" fill="#2C2416" rx="14"/>
<defs>
<clipPath id="b">
<ellipse cx="50" cy="17" rx="14" ry="16"/>
<path d="M44,31L56,31L56,40L44,40Z"/>
<path d="M44,38C30,39 10,46 6,58C2,70 6,84 14,94C20,102 22,110 20,122C16,130 8,142 8,158L92,158C92,142 84,130 80,122C78,110 80,102 86,94C94,84 98,70 94,58C90,46 70,39 56,38Z"/>
<path d="M6,58C2,70 0,86 2,102C4,116 8,128 14,134C18,138 22,136 24,130C22,116 18,96 14,76C10,66 6,62 6,58Z"/>
<path d="M94,58C98,70 100,86 98,102C96,116 92,128 86,134C82,138 78,136 76,130C78,116 82,96 86,76C90,66 94,62 94,58Z"/>
<path d="M8,158C6,172 6,188 8,204C10,212 14,218 20,220L46,220C50,220 50,216 50,212L50,158Z"/>
<path d="M92,158C94,172 94,188 92,204C90,212 86,218 80,220L54,220C50,220 50,216 50,212L50,158Z"/>
</clipPath>
</defs>
<g fill="rgba(201,169,110,0.28)">
<ellipse cx="50" cy="17" rx="14" ry="16"/>
<path d="M44,31L56,31L56,40L44,40Z"/>
<path d="M44,38C30,39 10,46 6,58C2,70 6,84 14,94C20,102 22,110 20,122C16,130 8,142 8,158L92,158C92,142 84,130 80,122C78,110 80,102 86,94C94,84 98,70 94,58C90,46 70,39 56,38Z"/>
<path d="M6,58C2,70 0,86 2,102C4,116 8,128 14,134C18,138 22,136 24,130C22,116 18,96 14,76C10,66 6,62 6,58Z"/>
<path d="M94,58C98,70 100,86 98,102C96,116 92,128 86,134C82,138 78,136 76,130C78,116 82,96 86,76C90,66 94,62 94,58Z"/>
<path d="M8,158C6,172 6,188 8,204C10,212 14,218 20,220L46,220C50,220 50,216 50,212L50,158Z"/>
<path d="M92,158C94,172 94,188 92,204C90,212 86,218 80,220L54,220C50,220 50,216 50,212L50,158Z"/>
</g>
<g clip-path="url(#b)">
<ellipse cx="50" cy="126" rx="52" ry="36" fill="rgba(228,72,50,0.78)"/>
<ellipse cx="50" cy="172" rx="52" ry="40" fill="rgba(228,72,50,0.82)"/>
</g>
</svg>
